HIERARCHY
ROOT root
{
	OFFSET 0.000000 0.000000 0.000000
	CHANNELS 6 Xposition Yposition Zposition Zrotation Yrotation Xrotation
	JOINT lhip
	{
		OFFSET 0.058581 -0.082280 -0.017664
		CHANNELS 3 Zrotation Yrotation Xrotation
		JOINT lknee
		{
			OFFSET 0.043451 -0.386469 0.008037
			CHANNELS 3 Zrotation Yrotation Xrotation
			JOINT lankle
			{
				OFFSET -0.014790 -0.426874 -0.037428
				CHANNELS 3 Zrotation Yrotation Xrotation
				JOINT ltoe
				{
					OFFSET 0.041054 -0.060286 0.122042
					CHANNELS 3 Zrotation Yrotation Xrotation
					End Site
					{
						OFFSET 0.000000 0.000000 0.000000
					}
				}
			}
		}
	}
	JOINT rhip
	{
		OFFSET -0.060310 -0.090513 -0.013543
		CHANNELS 3 Zrotation Yrotation Xrotation
		JOINT rknee
		{
			OFFSET -0.043257 -0.383688 -0.004843
			CHANNELS 3 Zrotation Yrotation Xrotation
			JOINT rankle
			{
				OFFSET 0.019056 -0.420046 -0.034562
				CHANNELS 3 Zrotation Yrotation Xrotation
				JOINT rtoe
				{
					OFFSET -0.034840 -0.062106 0.130323
					CHANNELS 3 Zrotation Yrotation Xrotation
					End Site
					{
						OFFSET 0.000000 0.000000 0.000000
					}
				}
			}
		}
	}
	JOINT lowerback
	{
		OFFSET 0.004439 0.124404 -0.038385
		CHANNELS 3 Zrotation Yrotation Xrotation
		JOINT upperback
		{
			OFFSET 0.004488 0.137956 0.026820
			CHANNELS 3 Zrotation Yrotation Xrotation
			JOINT chest
			{
				OFFSET -0.002265 0.056032 0.002855
				CHANNELS 3 Zrotation Yrotation Xrotation
				JOINT lowerneck
				{
					OFFSET -0.013390 0.211636 -0.033468
					CHANNELS 3 Zrotation Yrotation Xrotation
					JOINT upperneck
					{
						OFFSET 0.010113 0.088937 0.050410
						CHANNELS 3 Zrotation Yrotation Xrotation
						End Site
						{
							OFFSET 0.000000 0.000000 0.000000
						}
					}
				}
				JOINT lclavicle
				{
					OFFSET 0.071702 0.114000 -0.018898
					CHANNELS 3 Zrotation Yrotation Xrotation
					JOINT lshoulder
					{
						OFFSET 0.122921 0.045205 -0.019046
						CHANNELS 3 Zrotation Yrotation Xrotation
						JOINT lelbow
						{
							OFFSET 0.255332 -0.015649 -0.022946
							CHANNELS 3 Zrotation Yrotation Xrotation
							JOINT lwrist
							{
								OFFSET 0.265709 0.012698 -0.007375
								CHANNELS 3 Zrotation Yrotation Xrotation
								End Site
								{
									OFFSET 0.000000 0.000000 0.000000
								}
							}
						}
					}
				}
				JOINT rclavicle
				{
					OFFSET -0.082954 0.112472 -0.023707
					CHANNELS 3 Zrotation Yrotation Xrotation
					JOINT rshoulder
					{
						OFFSET -0.113228 0.046853 -0.008472
						CHANNELS 3 Zrotation Yrotation Xrotation
						JOINT relbow
						{
							OFFSET -0.260127 -0.014369 -0.031269
							CHANNELS 3 Zrotation Yrotation Xrotation
							JOINT rwrist
							{
								OFFSET -0.269108 0.006794 -0.006027
								CHANNELS 3 Zrotation Yrotation Xrotation
								End Site
								{
									OFFSET 0.000000 0.000000 0.000000
								}
							}
						}
					}
				}
			}
		}
	}
}
MOTION
Frames: 14
Frame Time: 0.033333
-0.509943 -0.292339 1.553336 -179.090212 0.634889 -2.807587 7.575265 1.193540 -15.215518 -3.751996 0.590289 16.889212 -10.317864 1.570148 -2.683789 0.000000 -0.000000 0.000000 -6.114199 -3.530119 -8.364836 0.081792 -1.229377 24.333997 12.553424 3.222041 8.758451 0.000000 -0.000000 0.000000 1.964130 3.591271 35.473094 -0.977146 -8.355608 16.787769 0.491977 2.666989 -3.956458 -6.999031 4.449009 21.312427 7.810966 -3.603938 6.732176 4.401603 -47.602558 -14.430878 -17.078959 -29.497530 -5.317415 7.986859 -19.200586 -22.487931 -28.317503 -3.489687 2.138336 -5.109579 43.613394 -5.598843 27.246372 29.095456 -6.565671 -46.615309 47.071244 -40.351764 37.990711 -13.500046 -6.915171 
-0.509643 -0.292646 1.553457 -179.171312 0.805715 -2.895335 7.472658 1.718661 -17.250698 -3.794819 2.233812 14.186432 -9.925088 1.791716 -3.317520 0.000000 -0.000000 0.000000 -6.293809 -4.013743 -8.571993 0.923699 -0.778017 21.704488 12.137231 3.403015 6.255539 0.000000 -0.000000 0.000000 2.162549 3.836081 36.063415 -0.614335 -8.548992 15.870765 0.849012 2.503490 -5.271196 -6.620497 0.371725 23.817449 9.356128 -5.465540 9.003995 2.086775 -49.181742 -11.053081 -16.564861 -28.396676 -6.723893 8.372440 -18.589633 -21.580014 -28.663730 -3.708300 2.847577 -4.480306 44.972991 -2.815897 27.182896 28.124026 -8.531741 -46.537276 47.827243 -39.165301 39.228121 -11.968288 -7.771497 
-0.509907 -0.293476 1.553841 -179.402330 0.536668 -3.208090 7.171001 2.381865 -19.191881 -3.438736 4.853618 12.059005 -9.089649 1.859199 -4.440676 0.000000 -0.000000 0.000000 -5.758850 -4.085775 -8.561074 0.609118 -1.103475 19.660683 11.757302 3.317056 4.198773 0.000000 -0.000000 0.000000 2.322839 3.939267 36.486246 -0.961157 -8.529110 15.450551 0.494528 2.795589 -4.369995 -5.609786 1.938742 22.262814 9.252920 -4.027169 8.019004 3.442834 -48.387269 -12.418443 -17.352726 -29.747715 -5.912630 8.308391 -18.282111 -20.548474 -27.314663 -3.425576 1.986688 -3.891310 43.981257 -3.442702 27.670173 28.664841 -7.323761 -47.330541 47.523894 -39.348090 36.809640 -13.324527 -7.258028 
-0.509002 -0.294384 1.552994 -179.371123 0.663056 -3.360149 6.805041 2.118241 -21.292269 -3.630403 5.836824 10.370418 -8.413598 1.787304 -5.098706 0.000000 -0.000000 0.000000 -5.505793 -4.071649 -8.680619 0.287081 -1.708006 18.500757 11.380322 3.130246 3.241395 0.000000 -0.000000 0.000000 2.165265 4.052881 36.952645 -0.919792 -8.731280 15.075094 0.610630 2.709647 -4.045725 -5.917687 2.099936 21.224686 9.579928 -6.457690 7.256037 2.359423 -48.783555 -12.721182 -16.285640 -29.750634 -5.796878 7.847418 -17.631620 -19.624140 -28.901401 -4.228818 2.353664 -3.641086 44.075676 -3.245921 27.477482 29.031891 -7.238210 -47.320942 47.665788 -38.415332 35.241797 -13.403305 -6.542702 
-0.508537 -0.296608 1.551857 -179.620283 0.641766 -3.486843 6.602142 1.660216 -23.321656 -3.287302 5.392588 8.933337 -7.915016 1.312501 -4.837383 0.000000 -0.000000 0.000000 -5.133061 -4.004926 -9.066213 0.178549 -1.928169 18.697989 11.449679 3.090894 3.031113 0.000000 -0.000000 0.000000 2.348289 4.137750 37.490010 -0.853364 -8.623419 14.533932 0.587031 2.715845 -3.461939 -6.003784 2.625294 19.779234 9.104413 -7.256104 6.809968 3.453213 -48.433601 -12.602100 -16.501048 -30.313987 -5.990578 8.752812 -17.743361 -18.811549 -28.847124 -5.042711 0.921539 -3.435707 43.724044 -2.908095 26.961739 29.623703 -7.831556 -47.278155 48.726204 -36.702330 35.041521 -11.645382 -6.525654 
-0.507734 -0.298025 1.551499 -179.494663 0.661379 -3.904617 7.183574 2.497071 -26.078108 -5.292273 7.874640 9.904692 -8.322533 0.790739 -5.137469 0.000000 -0.000000 0.000000 -4.970450 -3.506300 -8.419017 0.104294 -0.977948 18.700283 11.111264 2.356024 2.940933 0.000000 -0.000000 0.000000 2.008050 4.534207 37.727103 -0.563674 -8.960538 15.158654 0.844560 2.644238 -3.892707 -4.869867 2.932600 19.912025 8.716071 -4.878634 8.605831 1.623896 -49.403178 -12.069417 -14.511769 -28.952898 -6.480979 7.866307 -18.537330 -18.085207 -28.597898 -4.934439 1.086435 -2.648529 44.840937 -2.036417 25.713841 29.092858 -8.030279 -47.621148 48.353639 -37.309871 35.448711 -12.472042 -6.611008 
-0.507110 -0.300081 1.549954 -179.465454 0.540134 -4.150695 6.114026 1.286843 -27.432284 -4.040798 10.485620 8.402319 -7.404326 4.715482 -5.923595 0.000000 -0.000000 0.000000 -5.732976 -4.163257 -8.752486 1.528214 -1.241448 20.704604 11.989815 3.240323 3.683820 0.000000 -0.000000 0.000000 1.643298 5.446768 37.984269 -0.252931 -9.505980 15.908347 1.094731 2.787573 -4.552012 -5.007987 2.912003 20.003019 9.441564 -5.410214 7.202417 2.106472 -50.078553 -11.366966 -13.479524 -28.448607 -6.719925 7.551182 -18.753229 -18.528704 -27.144297 -4.950422 1.484868 -1.915127 45.203486 -0.950725 24.499112 29.089163 -8.799940 -47.352439 48.503404 -37.741289 33.211281 -12.650760 -5.882506 
-0.506055 -0.301810 1.549225 -179.560157 0.366183 -4.614599 6.687918 1.527427 -28.877763 -5.160509 10.707650 9.003677 -6.526201 4.130870 -6.425660 0.000000 -0.000000 0.000000 -4.674438 -3.702492 -7.405375 0.517272 0.809149 20.697194 11.452557 3.017145 4.548879 0.000000 -0.000000 0.000000 1.514847 5.707327 38.511366 -0.256237 -9.727882 16.308755 1.149425 3.036739 -4.798959 -5.223242 2.744395 19.402803 9.706114 -5.503988 7.021703 2.157888 -50.617871 -11.854685 -13.015169 -28.394939 -6.836724 7.235227 -18.108111 -17.909757 -26.752494 -5.104391 1.386080 -0.989692 45.865514 -0.920155 23.767507 28.731169 -8.910933 -47.056397 48.522232 -37.241821 32.359724 -12.337121 -5.789907 
-0.505973 -0.301485 1.547547 -179.347743 0.172050 -4.603462 6.485771 0.460747 -29.955589 -4.062763 9.842670 8.169723 -7.048819 4.417707 -4.640992 0.000000 -0.000000 0.000000 -5.033339 -2.997844 -6.860559 0.815733 1.211136 21.653498 12.398786 3.181530 5.917189 0.000000 -0.000000 0.000000 1.543268 6.148914 38.706563 -0.162993 -9.762421 16.053045 0.946648 3.051499 -5.474294 -4.041836 0.592042 21.069597 10.631817 -6.190371 8.496704 0.296041 -51.473986 -10.574148 -11.806859 -29.072742 -6.954596 6.253387 -16.833476 -18.727571 -26.150271 -4.288333 3.799415 0.772598 45.977587 0.025684 23.112237 28.179576 -8.758997 -46.471370 48.601844 -37.673899 30.113834 -12.692926 -4.484870 
-0.504249 -0.302693 1.547736 -179.253665 0.323805 -4.952078 6.881995 0.821241 -30.251313 -4.590963 9.839537 8.178811 -8.427704 2.819100 -2.631331 0.000000 -0.000000 0.000000 -4.831882 -2.815447 -5.534916 0.313055 1.467427 23.143840 12.152406 3.945328 6.777664 0.000000 -0.000000 0.000000 1.669675 5.853060 38.625602 -0.274793 -10.147226 16.617333 0.701165 3.214229 -5.674102 -5.254796 1.341857 21.330481 10.798395 -7.464707 7.311590 0.944130 -52.517287 -9.870717 -11.303152 -27.144710 -8.312065 7.279872 -17.408571 -20.169122 -28.882460 -3.643741 5.934104 -0.136695 46.821101 0.098463 23.575732 28.019485 -9.932042 -46.938308 48.828876 -37.687747 30.594817 -13.207287 -4.854905 
-0.503892 -0.303492 1.546752 -179.010585 0.452918 -4.704143 6.636094 0.092595 -30.284614 -3.776174 9.034628 7.784376 -8.607501 2.602214 -1.285650 0.000000 -0.000000 0.000000 -5.010886 -2.626094 -5.229840 0.090850 1.655425 25.637059 12.229814 3.848545 7.537264 0.000000 -0.000000 0.000000 1.578128 5.728548 37.993813 -0.411456 -10.412957 17.227060 0.507814 3.087862 -5.428628 -5.388288 2.918144 20.608967 10.084988 -7.029394 6.560584 2.036903 -52.094266 -11.178483 -11.729102 -27.412143 -7.902041 7.720409 -17.084321 -19.944200 -28.114528 -3.876842 5.682724 -0.736015 46.660387 -0.630427 23.833833 28.813135 -9.439133 -47.261578 48.370353 -37.818145 29.537663 -13.211165 -4.863423 
-0.503583 -0.304755 1.546826 -178.966910 0.532501 -4.389079 6.746778 -0.147559 -29.700799 -3.577201 9.219436 7.961360 -8.912446 2.817489 -0.609379 0.000000 -0.000000 0.000000 -4.951243 -2.714001 -4.864879 -0.247073 1.334754 28.025042 12.663686 3.351061 9.663213 0.000000 -0.000000 0.000000 1.232742 5.893903 37.229238 -0.304327 -10.321201 18.028464 0.614062 3.166445 -5.272372 -5.773774 4.188086 19.225436 9.167124 -6.320722 6.809610 3.137148 -51.970479 -12.187869 -12.689020 -28.842877 -8.636263 9.250469 -15.553770 -20.698896 -29.848481 -3.786756 7.680738 -1.373196 46.226831 -1.528051 24.205805 29.241212 -9.088265 -47.849758 48.247985 -38.008935 31.157516 -12.094662 -5.387801 
-0.503543 -0.303742 1.546594 -178.658160 0.958285 -4.082610 6.511345 -0.613743 -28.937665 -3.392003 9.388261 8.531498 -8.089124 3.272222 -0.227128 0.000000 -0.000000 0.000000 -5.306089 -2.624647 -4.505073 -0.288455 0.951502 30.641030 12.764965 2.274959 11.631907 0.000000 -0.000000 0.000000 0.952822 6.112643 36.842097 -0.180187 -10.432007 18.019884 0.761627 2.982096 -6.145072 -4.721680 0.971436 22.115921 10.222140 -5.213041 7.478209 -0.335994 -53.073368 -9.600726 -10.882409 -28.760585 -9.712558 8.745104 -15.058127 -21.581236 -30.369804 -2.221313 10.381643 0.507573 46.863979 -0.063687 23.608271 28.161442 -9.168744 -48.004533 48.267460 -39.499412 31.978796 -11.967636 -4.451126 
-0.503737 -0.303812 1.546435 -178.537191 0.746285 -3.647080 6.678322 -0.009545 -27.795149 -3.469332 9.856080 9.859899 -9.420395 3.681737 0.803311 0.000000 -0.000000 0.000000 -5.112456 -2.733557 -4.683028 -1.019603 1.364317 34.036488 12.373918 1.703147 13.474516 0.000000 -0.000000 0.000000 1.211444 5.751720 36.511340 -0.285188 -10.242408 17.767782 0.695515 2.987437 -6.007021 -6.012193 0.285496 22.634211 10.471675 -5.617724 7.588901 -0.494513 -53.033630 -9.223084 -11.556113 -28.070705 -10.171763 9.448757 -17.044824 -22.440638 -27.896499 -1.422788 9.714834 -0.309061 47.188121 -0.212581 23.958380 27.810446 -9.861722 -48.346645 48.453600 -39.579388 30.219628 -12.955296 -4.166580 
